<svg width="453" height="350" viewBox="0 0 453 350" fill="none" xmlns="http://www.w3.org/2000/svg">
<path d="M303.834 232.856C302.469 231.343 305.687 222.508 320.959 221.883C336.23 221.257 342.348 226.818 342.37 232.856C342.382 235.528 303.834 232.856 303.834 232.856Z" fill="#455A64"/>
<path d="M296.295 1.7055L279.329 106.626H434.271L452.942 0.579758L296.295 1.7055Z" fill="#F5F5F5"/>
<path d="M294.748 11.2458C294.817 10.8819 451.168 10.6545 451.168 10.6545L452.942 0.579758L296.295 1.71686L294.748 11.2685" fill="#E0E0E0"/>
<path d="M302.845 6.42446C302.847 6.71055 302.764 6.99087 302.607 7.22985C302.45 7.46882 302.225 7.65569 301.961 7.76673C301.697 7.87778 301.407 7.908 301.126 7.85357C300.845 7.79914 300.587 7.66252 300.383 7.46101C300.18 7.25951 300.042 7.00222 299.985 6.72178C299.928 6.44134 299.956 6.15039 300.065 5.88585C300.174 5.62131 300.359 5.3951 300.597 5.23591C300.835 5.07672 301.114 4.99172 301.401 4.99171C301.59 4.99021 301.777 5.02615 301.952 5.09748C302.127 5.16881 302.287 5.27413 302.421 5.40732C302.555 5.54051 302.662 5.69896 302.734 5.87353C302.807 6.04811 302.845 6.23535 302.845 6.42446Z" fill="#263238"/>
<path d="M309.895 6.42447C309.895 6.70784 309.811 6.98486 309.653 7.22048C309.496 7.45609 309.272 7.63972 309.01 7.74817C308.748 7.85661 308.46 7.88498 308.182 7.8297C307.904 7.77441 307.649 7.63796 307.449 7.43759C307.248 7.23721 307.112 6.98192 307.057 6.70399C307.001 6.42607 307.03 6.13799 307.138 5.87619C307.247 5.61439 307.43 5.39062 307.666 5.23318C307.902 5.07575 308.179 4.99173 308.462 4.99173C308.842 4.99173 309.206 5.14268 309.475 5.41138C309.744 5.68007 309.895 6.04448 309.895 6.42447Z" fill="#263238"/>
<path d="M316.956 6.42446C316.958 6.71055 316.876 6.99087 316.718 7.22985C316.561 7.46882 316.336 7.65569 316.073 7.76673C315.809 7.87778 315.518 7.908 315.237 7.85357C314.956 7.79914 314.698 7.66252 314.495 7.46101C314.292 7.25951 314.153 7.00222 314.096 6.72178C314.04 6.44134 314.068 6.15039 314.177 5.88585C314.286 5.62131 314.471 5.3951 314.708 5.23591C314.946 5.07672 315.226 4.99172 315.512 4.99171C315.701 4.99021 315.889 5.02615 316.064 5.09748C316.239 5.16881 316.398 5.27413 316.532 5.40732C316.667 5.54051 316.773 5.69896 316.846 5.87353C316.919 6.04811 316.956 6.23535 316.956 6.42446V6.42446Z" fill="#263238"/>
<path d="M334.456 58.3787L315.068 80.8024C311.408 78.3185 308.4 74.9887 306.299 71.0951C304.199 67.2015 303.069 62.859 303.004 58.4355C303.004 42.8459 317.206 30.008 334.456 30.008C351.706 30.008 365.908 42.8345 365.908 58.4355L334.456 58.3787Z" fill="#EE4248"/>
<path d="M336.946 61.9378C336.852 62.0966 336.741 62.2452 336.617 62.3813L335.605 63.5866L331.761 68.135C328.418 72.0467 323.665 77.573 317.968 84.225V83.8612C322.263 86.818 327.226 88.6622 332.409 89.2283C338.261 89.9031 344.188 89.0082 349.58 86.6357C354.726 84.4004 359.17 80.8127 362.44 76.2539C363.914 74.1281 365.095 71.8143 365.954 69.3745C366.703 67.0954 367.158 64.7301 367.307 62.3358L367.557 62.5973L345.384 62.2221L339.152 62.0856L337.504 62.0288C337.311 62.0469 337.116 62.0469 336.924 62.0288C337.105 62.0112 337.288 62.0112 337.469 62.0288H339.095H345.293L367.557 62.1766H367.83V62.4495C367.701 64.8973 367.25 67.3174 366.488 69.6474C365.625 72.1398 364.427 74.5037 362.929 76.6747C359.599 81.3551 355.048 85.0325 349.773 87.3066C344.281 89.7094 338.25 90.6119 332.296 89.9219C327.024 89.3235 321.983 87.4245 317.627 84.3956L317.4 84.2364L317.581 84.0204L331.613 68.0213L335.536 63.5866L336.582 62.4495C336.689 62.2687 336.81 62.0974 336.946 61.9378V61.9378Z" fill="#263238"/>
<path d="M347.828 43.2552C348.802 43.2552 349.591 42.4661 349.591 41.4927C349.591 40.5193 348.802 39.7302 347.828 39.7302C346.855 39.7302 346.066 40.5193 346.066 41.4927C346.066 42.4661 346.855 43.2552 347.828 43.2552Z" fill="#263238"/>
<path d="M384.602 28.598C384.053 28.6831 383.498 28.7212 382.942 28.7117L378.394 28.8026C374.584 28.8026 369.297 28.8936 363.509 28.8936H360.735L360.939 28.814C357.289 32.4527 354.037 35.6366 351.683 37.9108L348.897 40.5716C348.579 40.9173 348.22 41.2228 347.828 41.4813C348.104 41.103 348.413 40.7492 348.749 40.4238C349.443 39.6847 350.341 38.7523 351.41 37.6379C353.684 35.2841 356.891 32.032 360.507 28.3705L360.587 28.291H363.577C369.388 28.291 374.653 28.2909 378.462 28.3705L383.01 28.4729C383.544 28.4641 384.077 28.506 384.602 28.598V28.598Z" fill="#263238"/>
<path d="M424.537 50.7487C424.545 50.5458 424.571 50.344 424.617 50.1461C424.685 49.7367 424.776 49.1795 424.901 48.4632L426.038 42.1068L430.143 19.2965L430.382 19.5808L386.342 19.6376L386.626 19.3988V19.5125V19.649V19.9105L386.524 20.4336L386.331 21.4911L385.944 23.5833C385.682 24.9706 385.432 26.3465 385.171 27.711C384.67 30.4401 384.174 33.1236 383.681 35.7617C382.692 41.0151 381.748 45.9956 380.873 50.7829L380.6 50.4645L412.325 50.5895L421.422 50.6691H423.844H424.469H424.696H424.503H423.9H421.524L412.518 50.7374L380.679 50.8624H380.361L380.418 50.5441C381.293 45.8023 382.214 40.765 383.192 35.5002C383.67 32.8735 384.17 30.1899 384.67 27.4609C384.932 26.085 385.182 24.7091 385.444 23.3218C385.569 22.6282 385.694 21.9346 385.83 21.2295L386.024 20.1834L386.115 19.6603L386.171 19.3874V19.2624V19.16L386.467 18.9099L430.507 18.9667H430.666L430.609 19.251C428.79 28.7685 427.289 36.6259 426.243 42.1409C425.708 44.8358 425.299 46.9508 425.003 48.4404L424.674 50.0665C424.583 50.5782 424.537 50.7601 424.537 50.7487Z" fill="#263238"/>
<path d="M350.592 78.7101C351.565 78.7101 352.354 77.921 352.354 76.9476C352.354 75.9742 351.565 75.1851 350.592 75.1851C349.618 75.1851 348.829 75.9742 348.829 76.9476C348.829 77.921 349.618 78.7101 350.592 78.7101Z" fill="#263238"/>
<path d="M382.59 76.9476C382.59 77.1181 375.426 77.2432 366.591 77.2432C357.755 77.2432 350.591 77.1181 350.591 76.9476C350.591 76.777 357.755 76.6519 366.591 76.6519C375.426 76.6519 382.59 76.7884 382.59 76.9476Z" fill="#263238"/>
<path d="M424.537 90.6838C424.551 90.5377 424.578 90.3932 424.617 90.2517C424.685 89.9447 424.776 89.5353 424.901 89.0236C425.163 87.8865 425.538 86.3742 426.038 84.3956C427.028 80.3703 428.438 74.6279 430.177 67.5665L430.393 67.8394L384.977 67.9076L385.262 67.6916V67.7598V67.8508V68.0441L385.159 68.4307L384.966 69.1812L384.591 70.7049C384.329 71.7055 384.079 72.7062 383.829 73.7068L382.214 79.6652C381.236 83.52 380.293 87.2497 379.383 90.8089L379.121 90.4677L411.699 90.5928L421.115 90.661H423.639H424.298H424.537H424.333H423.696H421.228L411.859 90.7293L379.121 90.8543H378.758L378.848 90.5018C379.747 86.9427 380.679 83.2016 381.646 79.3469C382.131 77.4138 382.627 75.4542 383.135 73.468L383.886 70.4661L384.272 68.9537L384.466 68.1919L384.557 67.8053V67.6233V67.521V67.4528L384.841 67.2253L430.257 67.3049H430.666L430.598 67.5778C428.756 74.6734 427.266 80.4385 426.22 84.4752C425.697 86.4196 425.288 87.9547 425.003 89.0236C424.867 89.5126 424.765 89.8992 424.685 90.1607C424.605 90.4222 424.537 90.6951 424.537 90.6838Z" fill="#263238"/>
<path d="M420.955 28.996C420.955 29.1665 414.212 29.2916 405.889 29.2916C397.565 29.2916 390.822 29.1665 390.822 28.996C390.822 28.8254 397.565 28.7003 405.889 28.7003C414.212 28.7003 420.955 28.8368 420.955 28.996Z" fill="#263238"/>
<path d="M420.603 33.931C420.603 34.1016 413.78 34.2266 405.457 34.2266C397.133 34.2266 390.299 34.1016 390.299 33.931C390.299 33.7604 397.122 33.6353 405.457 33.6353C413.792 33.6353 420.603 33.7718 420.603 33.931Z" fill="#263238"/>
<path d="M419.727 38.7296C419.727 38.8887 413.178 39.0252 405.104 39.0252C397.031 39.0252 390.47 38.8887 390.47 38.7296C390.47 38.5704 397.019 38.4339 405.104 38.4339C413.189 38.4339 419.727 38.5249 419.727 38.7296Z" fill="#263238"/>
<path d="M420.25 76.4018C420.25 76.561 413.826 76.6974 405.889 76.6974C397.952 76.6974 391.527 76.561 391.527 76.4018C391.527 76.2426 397.963 76.1061 405.889 76.1061C413.814 76.1061 420.25 76.2539 420.25 76.4018Z" fill="#263238"/>
<path d="M418.488 81.8598C418.488 82.0304 413.007 82.1555 406.241 82.1555C399.476 82.1555 393.995 82.0304 393.995 81.8598C393.995 81.6893 399.476 81.5642 406.241 81.5642C413.007 81.5642 418.488 81.7007 418.488 81.8598Z" fill="#263238"/>
<path d="M235.471 196.105C234.925 199.3 219.756 232.867 229.547 232.867H278.761C278.761 232.867 273.678 228.091 289.063 196.105H235.471Z" fill="#455A64"/>
<path d="M203.632 84.0658L183.517 201.62H353.184L373.993 79.9382L203.632 84.0658Z" fill="#455A64"/>
<path d="M209.398 89.7968L192.443 194.729H347.374L366.045 88.6825L209.398 89.7968Z" fill="#FAFAFA"/>
<path d="M373.993 79.9382L377.2 82.0987L355.595 204.815H187.997L183.517 201.62H353.184L373.993 79.9382Z" fill="#263238"/>
<path d="M207.862 99.3485C207.919 98.9732 364.271 98.7572 364.271 98.7572L366.045 88.6825L209.398 89.8196L207.862 99.3712" fill="#EBEBEB"/>
<path d="M322.96 185.416V185.12L323.096 184.245C323.24 183.411 323.434 182.274 323.676 180.833C324.211 177.774 324.961 173.385 325.894 167.939C327.827 156.909 330.522 141.558 333.58 124.137V123.887H346.384L346.327 124.24C341.586 149.927 337.435 172.498 335.036 185.473V185.609H334.911L325.996 185.518H323.722H323.165H323.779H326.132L334.945 185.427L334.786 185.552L345.793 124.274L346.089 124.615H333.899L334.183 124.376C331.033 141.694 328.27 156.943 326.223 167.916C325.223 173.374 324.404 177.774 323.835 180.845C323.551 182.334 323.335 183.505 323.176 184.347C323.096 184.722 323.039 185.029 322.994 185.257C322.985 185.31 322.973 185.363 322.96 185.416V185.416Z" fill="#263238"/>
<path d="M303.311 185.416C303.326 185.139 303.368 184.865 303.436 184.597C303.538 183.994 303.686 183.187 303.868 182.164C304.277 179.969 304.846 176.865 305.562 173.067C307.052 165.187 309.133 154.225 311.509 141.694V141.455H324.313L324.245 141.808C320.652 159.626 317.422 175.466 315.421 185.507V185.655H315.273L306.37 185.552H304.095C303.842 185.569 303.587 185.569 303.334 185.552H304.175H306.54L315.319 185.45L315.137 185.598C317.115 175.546 320.231 159.695 323.733 141.853L324.017 142.206H311.759L312.044 141.978C309.576 154.396 307.416 165.266 305.858 173.078C305.073 176.956 304.448 180.071 303.993 182.266L303.481 184.756C303.481 185.018 303.368 185.234 303.334 185.404L303.311 185.416Z" fill="#263238"/>
<path d="M283.582 185.416C283.572 185.295 283.572 185.173 283.582 185.052L283.764 183.915C283.935 182.914 284.173 181.481 284.492 179.639C285.151 175.876 286.095 170.452 287.278 163.72C289.688 150.075 293.043 131.187 296.841 109.776V109.537H309.644L309.588 109.878C303.652 142.388 298.41 170.713 295.635 185.416V185.541H295.51L286.561 185.45H284.287H283.537H284.344H286.675L295.522 185.37L295.385 185.484C297.978 170.702 303.095 142.399 309.03 109.901L309.326 110.253H297.17L297.455 110.003C293.577 131.301 290.143 150.131 287.664 163.674C286.413 170.429 285.39 175.875 284.708 179.651L283.889 183.983C283.798 184.461 283.73 184.836 283.673 185.12L283.582 185.416Z" fill="#263238"/>
<path d="M263.887 185.416C263.896 185.225 263.919 185.035 263.956 184.847C264.035 184.404 264.126 183.847 264.24 183.142C264.501 181.572 264.877 179.389 265.377 176.671C266.366 171.043 267.742 163.231 269.323 154.202V153.964H282.115L282.047 154.316C279.693 166.597 277.578 177.649 276.077 185.461V185.632H275.918L267.049 185.518L264.649 185.416C264.388 185.432 264.126 185.432 263.865 185.416H264.729H267.128L275.861 185.302L275.656 185.461C277.112 177.649 279.17 166.574 281.444 154.282L281.74 154.634H269.562L269.834 154.407C268.152 163.333 266.707 171.054 265.65 176.615C265.127 179.344 264.695 181.55 264.388 183.13C264.24 183.847 264.126 184.438 264.035 184.881C263.996 185.062 263.947 185.241 263.887 185.416V185.416Z" fill="#263238"/>
<path d="M244.181 185.416C244.181 185.416 244.181 185.336 244.181 185.177C244.181 185.018 244.181 184.734 244.284 184.438C244.398 183.744 244.545 182.789 244.739 181.561C245.159 179.003 245.751 175.341 246.49 170.793C248.036 161.537 250.174 148.665 252.619 134.007V133.769H265.423L265.354 134.121C261.602 155.305 258.293 174.033 256.258 185.45V185.598H256.121L247.229 185.495H244.898C244.644 185.512 244.39 185.512 244.136 185.495H244.352H244.966H247.331L256.121 185.404L255.951 185.541L264.797 134.167L265.093 134.519H252.96L253.244 134.28C250.708 148.835 248.48 161.571 246.876 170.793C246.058 175.341 245.41 179.037 244.943 181.618C244.716 182.857 244.545 183.892 244.409 184.54L244.261 185.313L244.181 185.416Z" fill="#263238"/>
<path d="M224.51 185.416C224.495 185.306 224.495 185.195 224.51 185.086C224.51 184.836 224.601 184.506 224.669 184.085C224.828 183.164 225.044 181.811 225.328 180.174C225.908 176.762 226.761 171.771 227.807 165.607C229.968 153.156 232.981 135.827 236.392 116.212V115.973H249.196L249.139 116.325C243.84 145.799 239.155 171.566 236.574 185.45V185.575H236.449L227.523 185.484H225.249H224.703H225.306H227.637L236.472 185.393L236.324 185.518C238.735 171.6 243.306 145.811 248.605 116.348L248.889 116.689H236.711L236.995 116.451C233.504 135.963 230.411 153.19 228.194 165.573C227.057 171.759 226.158 176.728 225.522 180.185C225.215 181.891 224.964 183.21 224.794 184.154C224.703 184.586 224.646 184.927 224.589 185.188C224.532 185.45 224.51 185.416 224.51 185.416Z" fill="#263238"/>
<path d="M215.947 94.5272C215.949 94.8133 215.867 95.0936 215.709 95.3326C215.552 95.5715 215.327 95.7584 215.064 95.8694C214.8 95.9805 214.509 96.0107 214.228 95.9563C213.948 95.9019 213.689 95.7652 213.486 95.5637C213.283 95.3622 213.144 95.1049 213.088 94.8245C213.031 94.5441 213.059 94.2531 213.168 93.9886C213.277 93.724 213.462 93.4978 213.7 93.3386C213.937 93.1794 214.217 93.0944 214.503 93.0944C214.884 93.0944 215.25 93.245 215.52 93.5134C215.791 93.7817 215.944 94.1462 215.947 94.5272V94.5272Z" fill="#263238"/>
<path d="M221.564 95.9599C222.356 95.9599 222.997 95.3185 222.997 94.5272C222.997 93.7359 222.356 93.0944 221.564 93.0944C220.773 93.0944 220.132 93.7359 220.132 94.5272C220.132 95.3185 220.773 95.9599 221.564 95.9599Z" fill="#263238"/>
<path d="M230.059 94.5272C230.061 94.8137 229.978 95.0945 229.82 95.3337C229.662 95.5729 229.437 95.7598 229.172 95.8705C228.908 95.9812 228.617 96.0108 228.336 95.9554C228.054 95.9 227.796 95.7623 227.593 95.5596C227.391 95.357 227.253 95.0986 227.198 94.8174C227.142 94.5363 227.172 94.245 227.283 93.9806C227.393 93.7163 227.58 93.4909 227.819 93.333C228.059 93.1752 228.339 93.0922 228.626 93.0944C229.005 93.0974 229.368 93.2493 229.636 93.5173C229.904 93.7854 230.056 94.1481 230.059 94.5272Z" fill="#263238"/>
<path d="M204.815 185.416C204.815 185.416 204.815 185.12 204.94 184.54C205.065 183.96 205.179 183.051 205.361 181.959C205.759 179.685 206.316 176.353 207.01 172.271C208.465 163.925 210.478 152.326 212.786 139.09V138.851H225.59L225.522 139.204C222.008 158.148 218.881 174.954 216.936 185.461V185.609H216.8L207.896 185.507H205.622C205.365 185.523 205.107 185.523 204.849 185.507H205.076H205.69H208.056L216.845 185.404L216.664 185.552L225.021 139.261L225.306 139.602H213.07L213.355 139.363C210.955 152.497 208.806 164.004 207.351 172.271C206.577 176.376 205.963 179.685 205.52 182.004C205.315 183.142 205.145 184.006 205.02 184.643L204.883 185.336C204.862 185.364 204.839 185.39 204.815 185.416Z" fill="#263238"/>
<path d="M337.731 139.147H272.825L276.532 117.36H341.893L337.731 139.147Z" fill="#EE4248"/>
<path d="M272.825 139.147L271.563 146.754C271.563 146.754 280.091 138.851 279.955 138.851H272.882" fill="#EE4248"/>
<path d="M332.102 124.933C332.102 125.093 321.288 125.229 307.962 125.229C294.635 125.229 283.81 125.093 283.81 124.933C283.81 124.774 294.623 124.638 307.962 124.638C321.3 124.638 332.102 124.774 332.102 124.933Z" fill="#FAFAFA"/>
<path d="M331.465 130.198C331.465 130.357 320.652 130.494 307.325 130.494C293.998 130.494 283.173 130.357 283.173 130.198C283.173 130.039 293.987 129.902 307.325 129.902C320.663 129.902 331.465 130.028 331.465 130.198Z" fill="#FAFAFA"/>
<path d="M437.625 240.395H252.71V348.294H437.625V240.395Z" fill="#263238"/>
<path d="M336.946 240.395H252.71V348.294H336.946V240.395Z" fill="#455A64"/>
<path d="M328.327 277.044C328.327 277.044 328.327 276.85 328.327 276.498C328.327 276.145 328.327 275.599 328.327 274.929C328.327 273.53 328.327 271.517 328.27 268.936C328.27 263.751 328.213 256.28 328.156 247.07L328.372 247.286L260.612 247.365C260.351 247.638 260.965 247.013 260.908 247.081V254.881C260.908 257.463 260.908 260.01 260.908 262.511C260.908 267.526 260.908 272.393 260.908 277.044L260.635 276.771L309.201 276.896L323.29 276.975H327.065H328.054H328.395C328.293 276.986 328.19 276.986 328.088 276.975H327.133H323.415L309.394 277.055L260.635 277.191H260.351V276.907C260.351 272.256 260.351 267.39 260.351 262.375V247.081C260.283 247.081 260.908 246.512 260.647 246.774L328.327 246.819H328.543V247.024C328.543 256.291 328.452 263.796 328.429 269.027C328.429 271.585 328.429 273.575 328.372 274.963C328.372 275.611 328.372 276.1 328.372 276.498C328.371 276.681 328.355 276.863 328.327 277.044V277.044Z" fill="#263238"/>
<path d="M297.364 262.056C297.364 262.056 297.296 261.806 297.159 261.386C296.969 260.804 296.599 260.298 296.102 259.941C295.743 259.682 295.326 259.516 294.887 259.458C294.448 259.401 294.002 259.453 293.589 259.612C293.089 259.798 292.658 260.133 292.354 260.571C292.05 261.009 291.887 261.529 291.887 262.062C291.887 262.595 292.05 263.116 292.354 263.554C292.658 263.992 293.089 264.326 293.589 264.513C294.003 264.665 294.448 264.715 294.886 264.657C295.323 264.6 295.741 264.437 296.102 264.183C296.599 263.826 296.969 263.32 297.159 262.739C297.296 262.318 297.307 262.056 297.364 262.056C297.421 262.056 297.455 262.318 297.364 262.796C297.232 263.472 296.866 264.08 296.329 264.513C295.923 264.843 295.439 265.063 294.923 265.153C294.408 265.242 293.878 265.198 293.384 265.024C292.77 264.809 292.238 264.409 291.861 263.878C291.485 263.347 291.282 262.713 291.282 262.062C291.282 261.411 291.485 260.777 291.861 260.246C292.238 259.716 292.77 259.315 293.384 259.1C293.877 258.928 294.406 258.884 294.921 258.971C295.436 259.059 295.92 259.275 296.329 259.6C296.867 260.036 297.234 260.649 297.364 261.329C297.455 261.806 297.398 262.068 297.364 262.056Z" fill="#263238"/>
<path d="M328.327 310.042C328.327 310.042 328.327 309.849 328.327 309.496C328.327 309.144 328.327 308.587 328.327 307.916C328.327 306.517 328.327 304.505 328.27 301.935C328.27 296.738 328.213 289.279 328.157 280.068L328.373 280.284L260.613 280.364L260.908 280.068V287.857C260.908 290.439 260.908 292.974 260.908 295.487C260.908 300.502 260.908 305.357 260.908 310.019L260.635 309.735L309.201 309.872L323.29 309.951H327.065H328.054C328.168 309.942 328.282 309.942 328.395 309.951H328.088H327.133H323.415L309.394 310.031L260.635 310.167H260.351V309.883C260.351 305.221 260.351 300.365 260.351 295.351V280.091L260.647 279.795L328.407 279.875H328.623V280.091C328.623 289.358 328.532 296.863 328.509 302.083C328.509 304.641 328.509 306.631 328.452 308.03C328.452 308.678 328.452 309.167 328.452 309.553C328.421 309.719 328.379 309.882 328.327 310.042Z" fill="#263238"/>
<path d="M297.364 295.055C297.364 295.055 297.296 294.794 297.159 294.373C296.969 293.791 296.599 293.285 296.102 292.929C295.741 292.675 295.323 292.512 294.886 292.454C294.448 292.397 294.003 292.447 293.589 292.599C293.089 292.785 292.658 293.12 292.354 293.558C292.05 293.996 291.887 294.516 291.887 295.05C291.887 295.583 292.05 296.103 292.354 296.541C292.658 296.979 293.089 297.314 293.589 297.5C294.001 297.657 294.447 297.71 294.885 297.654C295.323 297.599 295.741 297.437 296.102 297.182C296.602 296.823 296.973 296.313 297.159 295.726C297.296 295.305 297.307 295.055 297.364 295.055C297.421 295.055 297.455 295.317 297.364 295.783C297.236 296.464 296.869 297.077 296.329 297.511C295.922 297.84 295.437 298.058 294.922 298.145C294.406 298.233 293.877 298.187 293.384 298.012C292.77 297.797 292.238 297.396 291.861 296.865C291.485 296.335 291.282 295.7 291.282 295.05C291.282 294.399 291.485 293.764 291.861 293.234C292.238 292.703 292.77 292.302 293.384 292.087C293.878 291.914 294.408 291.869 294.923 291.959C295.439 292.049 295.923 292.269 296.329 292.599C296.869 293.034 297.236 293.647 297.364 294.327C297.455 294.794 297.398 295.055 297.364 295.055Z" fill="#263238"/>
<path d="M328.327 343.03C328.327 343.03 328.327 342.836 328.327 342.484C328.327 342.131 328.327 341.585 328.327 340.915C328.327 339.516 328.327 337.503 328.27 334.922C328.27 329.737 328.213 322.266 328.156 313.056L328.372 313.272L260.612 313.351C260.351 313.624 260.965 312.999 260.908 313.067V320.867C260.908 323.449 260.908 325.996 260.908 328.497C260.908 333.512 260.908 338.379 260.908 343.03L260.635 342.757L309.201 342.882L323.29 342.961H327.065H328.054H328.395C328.293 342.972 328.19 342.972 328.088 342.961H327.133H323.415L309.394 343.03L260.635 343.166H260.351V342.882C260.351 338.231 260.351 333.364 260.351 328.35V313.067C260.283 313.124 260.908 312.498 260.647 312.76L328.407 312.851H328.623V313.056C328.623 322.323 328.532 329.839 328.509 335.058C328.509 337.617 328.509 339.607 328.452 340.994C328.452 341.654 328.452 342.131 328.452 342.529C328.422 342.699 328.38 342.866 328.327 343.03V343.03Z" fill="#263238"/>
<path d="M297.364 328.043C297.364 328.043 297.296 327.792 297.159 327.372C296.969 326.79 296.599 326.284 296.102 325.928C295.742 325.671 295.324 325.506 294.886 325.449C294.448 325.391 294.002 325.442 293.589 325.598C293.089 325.784 292.658 326.119 292.354 326.557C292.05 326.995 291.887 327.515 291.887 328.048C291.887 328.581 292.05 329.102 292.354 329.54C292.658 329.978 293.089 330.312 293.589 330.499C294.002 330.654 294.448 330.705 294.886 330.648C295.324 330.59 295.742 330.426 296.102 330.169C296.599 329.812 296.969 329.306 297.159 328.725C297.296 328.304 297.307 328.043 297.364 328.043C297.421 328.043 297.455 328.304 297.364 328.782C297.231 329.461 296.865 330.072 296.329 330.51C295.92 330.835 295.436 331.052 294.921 331.139C294.406 331.227 293.877 331.183 293.384 331.01C292.77 330.795 292.238 330.395 291.861 329.864C291.485 329.333 291.282 328.699 291.282 328.048C291.282 327.398 291.485 326.763 291.861 326.232C292.238 325.702 292.77 325.301 293.384 325.086C293.877 324.914 294.406 324.87 294.921 324.957C295.436 325.045 295.92 325.261 296.329 325.586C296.867 326.022 297.234 326.635 297.364 327.315C297.455 327.792 297.398 328.054 297.364 328.043Z" fill="#263238"/>
<path d="M161.514 240.395H5.96979V348.294H161.514V240.395Z" fill="#263238"/>
<path d="M444.323 232.867H0V243.124H444.323V232.867Z" fill="#263238"/>
<path d="M19.7515 243.124H5.96979V348.294H19.7515V243.124Z" fill="#455A64"/>
<path d="M178.718 70.5684C178.627 70.1369 178.562 69.7002 178.525 69.2607C178.36 68.092 177.974 66.9652 177.388 65.9404C177.008 65.254 176.43 64.699 175.728 64.3484C175.332 64.1785 174.895 64.13 174.472 64.2089C174.049 64.2879 173.659 64.4908 173.351 64.7919C172.034 66.4269 171.316 68.4632 171.316 70.5627C171.316 72.6622 172.034 74.6985 173.351 76.3335C173.658 76.6365 174.047 76.8415 174.47 76.9225C174.894 77.0035 175.331 76.9568 175.728 76.7883C176.428 76.4302 177.006 75.8721 177.388 75.185C177.974 74.1602 178.36 73.0335 178.525 71.8647C178.562 71.4289 178.626 70.9959 178.718 70.5684C178.792 71.0088 178.792 71.4584 178.718 71.8988C178.642 73.1234 178.305 74.3176 177.729 75.4011C177.318 76.1824 176.68 76.8207 175.898 77.2318C175.435 77.4536 174.916 77.529 174.409 77.4479C173.879 77.3441 173.386 77.1052 172.976 76.7542C171.508 75.0273 170.702 72.8348 170.702 70.5684C170.702 68.302 171.508 66.1095 172.976 64.3826C173.382 64.0239 173.877 63.7805 174.409 63.6776C174.916 63.602 175.434 63.6772 175.898 63.8936C176.68 64.3047 177.318 64.9431 177.729 65.7243C178.307 66.8112 178.644 68.0095 178.718 69.238C178.791 69.6785 178.791 70.1279 178.718 70.5684V70.5684Z" fill="#263238"/>
<path d="M129.63 48.338L126.218 116.473L155.487 119.225L157.102 102.68C157.102 102.68 167.336 105.227 170.52 95.7097C172.51 89.6262 174.284 41.993 174.284 41.993L129.63 48.338Z" fill="#FFBE9D"/>
<path d="M180.504 49.0203C178.013 54.9446 168.621 60.0275 168.621 60.0275L167.086 75.1168C165.689 75.0205 164.287 75.0205 162.89 75.1168C163.64 68.0327 154.532 69.4313 153.6 74.2412C152.713 78.8806 158 81.9849 158 81.9849C154.35 87.5795 152.872 90.5359 147.687 95.778C142.092 101.463 139.079 101.918 133.291 101.748L126.912 101.452C126.912 101.452 124.638 96.0054 122.989 83.1448C122.182 76.9589 117.304 68.8514 118.725 58.788C122.637 30.2126 154.259 35.2841 154.259 35.2841C166.131 26.0508 186.371 35.0908 180.504 49.0203Z" fill="#263238"/>
<path d="M178.718 70.648C176.56 71.0641 174.367 71.2772 172.169 71.2848C169.982 71.4788 167.783 71.4788 165.596 71.2848C167.752 70.8756 169.941 70.6662 172.135 70.6594C174.325 70.4649 176.528 70.4611 178.718 70.648Z" fill="#263238"/>
<path d="M271.961 150.689L261.329 157.272L257.429 166.369V158.41C257.429 158.41 260.317 154.998 262.682 152.508C265.047 150.018 263.353 148.289 262.682 147.437C262.011 146.584 251.834 158.41 251.834 158.41V165.232C247.092 159.399 244.898 161.4 244.17 162.458C243.442 163.515 251.834 171.429 251.834 171.429V173.84L210.137 196.264L199.164 168.973L176.751 180.742L190.135 213.138C191.058 215.38 192.452 217.396 194.223 219.051C195.994 220.706 198.1 221.96 200.398 222.729C202.697 223.498 205.134 223.764 207.544 223.508C209.954 223.252 212.281 222.48 214.367 221.246L263.433 192.238L266.696 186.792C267.829 184.915 268.496 182.793 268.641 180.606L270.335 156.101C273.314 154.236 271.961 150.689 271.961 150.689Z" fill="#FFBE9D"/>
<path d="M210.341 196.298C209.351 200.135 207.971 203.861 206.225 207.419C207.229 203.586 208.608 199.861 210.341 196.298V196.298Z" fill="#EB996E"/>
<path d="M270.335 156.101C269.707 156.425 269.061 156.713 268.402 156.965C267.649 157.322 266.978 157.829 266.428 158.455C265.879 159.08 265.463 159.812 265.207 160.604C264.357 162.894 263.322 165.111 262.114 167.234C262.78 164.895 263.632 162.614 264.661 160.411C264.993 159.48 265.52 158.631 266.207 157.921C266.796 157.373 267.478 156.934 268.22 156.624C268.876 156.291 269.599 156.112 270.335 156.101V156.101Z" fill="#EB996E"/>
<path d="M270.176 159.979C269.991 160.004 269.815 160.07 269.659 160.172C269.504 160.274 269.373 160.41 269.277 160.57C268.948 161.207 268.527 162.208 268.14 163.276C267.713 164.629 267.212 165.958 266.639 167.256C266.641 165.805 266.963 164.372 267.583 163.06C267.95 162.103 268.419 161.188 268.982 160.331C269.085 160.189 269.217 160.07 269.37 159.984C269.523 159.897 269.693 159.845 269.869 159.831C270.085 159.831 270.187 159.945 270.176 159.979Z" fill="#EB996E"/>
<path d="M170.054 176.592L174.818 192.727L205.054 179.082C203.917 175.671 198.959 160.65 189.396 136.771C186.777 130.223 182.518 124.46 177.027 120.035C171.537 115.61 165 112.672 158.046 111.504C148.153 109.855 137.385 108.57 129.095 108.673C120.866 108.749 112.911 111.648 106.562 116.884C100.212 122.12 95.8516 129.377 94.209 137.441C91.6505 150.12 96.1307 158.501 93.2425 186.246L92.3214 256.03L173.056 258.998L170.054 176.592Z" fill="#EE4248"/>
<path d="M96.9949 185.507C96.9949 185.507 85.7717 186.166 81.3597 177.672C81.3597 177.672 93.4471 132.984 97.6658 127.719L96.9949 185.507Z" fill="#EE4248"/>
<path d="M190.92 141.273C190.631 141.497 190.308 141.673 189.964 141.797C188.975 142.156 187.935 142.351 186.883 142.376C185.23 142.368 183.584 142.158 181.982 141.751C180.117 141.33 178.036 140.705 175.705 140.318C174.49 140.172 173.267 140.107 172.044 140.125C170.72 140.23 169.408 140.447 168.121 140.773C165.266 141.549 162.524 142.696 159.968 144.184C157.204 145.685 154.396 147.459 151.405 149.21C148.337 151.115 145.049 152.642 141.615 153.759C138.086 154.852 134.317 154.911 130.755 153.929C127.525 152.884 124.515 151.254 121.875 149.119C119.339 147.152 117.133 145.083 115.052 143.195C113.154 141.426 111.141 139.785 109.025 138.283C106.014 136.032 102.503 134.542 98.7915 133.939C97.4205 133.862 96.0462 133.862 94.6752 133.939C95.0105 133.803 95.3622 133.711 95.7213 133.666C96.7513 133.502 97.7962 133.453 98.837 133.518C102.67 133.963 106.326 135.38 109.458 137.635C111.642 139.109 113.717 140.739 115.666 142.513C117.781 144.378 120.01 146.402 122.489 148.289C125.037 150.309 127.931 151.849 131.028 152.838C134.389 153.743 137.938 153.676 141.262 152.644C144.602 151.553 147.804 150.076 150.803 148.244C153.77 146.527 156.602 144.753 159.422 143.252C162.074 141.745 164.915 140.598 167.87 139.841C169.222 139.517 170.6 139.312 171.987 139.227C173.269 139.24 174.549 139.339 175.819 139.522C178.23 139.977 180.288 140.659 182.118 141.137C183.663 141.582 185.254 141.849 186.86 141.933C188.239 141.925 189.609 141.703 190.92 141.273V141.273Z" fill="#263238"/>
<path d="M170.588 196.957C169.047 196.039 167.345 195.422 165.574 195.138C163.644 194.91 161.69 195.018 159.797 195.456C157.637 195.888 155.306 196.673 152.747 197.31C148.357 198.439 143.76 198.501 139.341 197.492C135.929 196.696 134.099 195.616 134.155 195.502C134.212 195.388 136.191 196.105 139.511 196.639C143.817 197.372 148.228 197.198 152.463 196.127C154.953 195.502 157.33 194.74 159.592 194.342C161.609 193.934 163.685 193.911 165.71 194.274C167.081 194.518 168.384 195.053 169.531 195.843C170.327 196.468 170.645 196.912 170.588 196.957Z" fill="#263238"/>
<path d="M171.407 238.621C171.407 238.621 171.1 239.133 170.338 239.849C169.238 240.855 168.006 241.708 166.677 242.385C164.682 243.42 162.476 243.98 160.229 244.022C157.487 243.947 154.784 243.345 152.269 242.248C149.62 241.213 147.198 240.054 144.912 239.405C142.892 238.788 140.777 238.542 138.67 238.678C137.262 238.762 135.889 239.15 134.644 239.815C133.757 240.304 133.348 240.702 133.269 240.622C133.189 240.543 133.541 240.065 134.406 239.485C135.638 238.592 137.079 238.028 138.59 237.848C140.808 237.589 143.056 237.762 145.208 238.359C147.76 239.152 150.265 240.086 152.713 241.157C155.084 242.194 157.622 242.799 160.206 242.942C162.305 242.951 164.38 242.505 166.29 241.634C169.644 240.122 171.293 238.45 171.407 238.621Z" fill="#263238"/>
<g opacity="0.3">
<path opacity="0.3" d="M83.85 186.291C94.4251 188.452 105.284 186.291 116.053 185.632C122.591 185.245 129.834 184.495 134.997 188.554C139.09 191.738 140.682 197.094 141.922 202.143C146.47 221.405 147.255 238.609 148.267 258.361L95.9602 257.224L83.85 186.291Z" fill="black"/>
</g>
<path opacity="0.3" d="M97.6658 150.029L99.9286 182.641H93.0378L97.6658 150.029Z" fill="black"/>
<path d="M112.357 255.984L216.175 259.657C224.276 259.942 231.943 263.394 237.526 269.271C243.11 275.148 246.165 282.981 246.035 291.087L245.125 350H207.055L204.599 299.206L112.357 296.772V255.984Z" fill="#263238"/>
<path d="M147.175 309.849H136.964V347.225H147.175V309.849Z" fill="#455A64"/>
<path d="M51.2834 191.101V281.16C51.2864 286.831 53.5412 292.268 57.5521 296.277C61.5629 300.285 67.0016 302.537 72.6723 302.537H132.643V191.101C132.64 188.573 131.634 186.149 129.845 184.363C128.056 182.576 125.631 181.572 123.103 181.572H60.8123C58.2851 181.572 55.8614 182.576 54.0743 184.363C52.2873 186.15 51.2834 188.574 51.2834 191.101V191.101Z" fill="#455A64"/>
<path d="M213.355 309.849H67.3051C67.3232 305.639 69.0083 301.607 71.9919 298.636C74.9754 295.666 79.0142 293.998 83.2246 293.998H197.56C201.764 293.998 205.796 295.668 208.769 298.64C211.741 301.613 213.411 305.645 213.411 309.849H213.355Z" fill="#455A64"/>
<path d="M132.643 291.894C132.709 292.784 132.633 293.678 132.416 294.544C131.926 296.571 130.859 298.413 129.343 299.846C127.827 301.279 125.928 302.242 123.876 302.617C122.948 302.768 122.008 302.832 121.067 302.81H118.122H105H81.1209L73.9003 302.719H71.9331C71.7037 302.726 71.4743 302.704 71.2509 302.651C71.4765 302.615 71.7046 302.596 71.9331 302.594L73.9003 302.537L81.1209 302.435L105 302.321H121.067C121.98 302.356 122.894 302.303 123.796 302.162C125.393 301.886 126.901 301.236 128.197 300.263C130.12 298.842 131.51 296.815 132.143 294.509C132.62 292.849 132.563 291.883 132.643 291.894Z" fill="#263238"/>
<path d="M151.019 310.156C148.046 310.456 145.056 310.554 142.07 310.452C139.08 310.555 136.086 310.456 133.109 310.156C136.086 309.863 139.08 309.764 142.07 309.86C145.056 309.764 148.045 309.863 151.019 310.156V310.156Z" fill="#263238"/>
<path d="M195.457 303.333C195.315 302.968 195.224 302.586 195.184 302.196C195.036 301.457 194.843 300.388 194.615 299.001C194.149 296.215 193.478 292.178 192.75 287.221C192.341 284.742 192.011 281.979 191.465 279.102C191.318 278.385 191.181 277.658 191.033 276.907C190.885 276.157 190.601 275.452 190.385 274.701C190.271 274.337 190.169 273.951 190.055 273.564C189.942 273.177 189.771 272.825 189.623 272.427C189.316 271.676 189.043 270.915 188.714 270.153C187.27 267.039 185.444 264.117 183.278 261.454C180.913 258.625 178.161 256.145 175.102 254.085C172.058 252.002 168.714 250.391 165.187 249.31C161.913 248.27 158.511 247.689 155.078 247.581C148.46 247.433 142.433 247.467 137.408 247.399C132.382 247.331 128.311 247.274 125.491 247.206C124.081 247.206 122.989 247.138 122.239 247.092C121.856 247.104 121.474 247.066 121.101 246.979C121.473 246.883 121.855 246.841 122.239 246.853L125.491 246.74C128.299 246.671 132.382 246.615 137.408 246.558C142.433 246.501 148.426 246.399 155.112 246.49C158.652 246.565 162.163 247.143 165.539 248.207C169.185 249.298 172.638 250.951 175.773 253.107C178.932 255.222 181.767 257.784 184.188 260.715C186.404 263.468 188.265 266.49 189.726 269.709C190.055 270.482 190.328 271.278 190.635 272.04C190.772 272.427 190.92 272.802 191.067 273.177C191.215 273.553 191.283 273.951 191.397 274.314C191.613 275.088 191.818 275.838 192.023 276.589C192.227 277.339 192.307 278.101 192.443 278.863C192.955 281.808 193.228 284.548 193.58 287.027C194.229 292.019 194.717 296.067 195.07 298.864C195.229 300.263 195.354 301.355 195.422 302.094C195.496 302.503 195.508 302.921 195.457 303.333V303.333Z" fill="#455A64"/>
<path d="M11.1549 194.353C11.1549 194.353 9.31281 199.504 12.8378 203.234H20.1721C20.1721 203.234 19.524 194.911 11.1549 194.353Z" fill="#EE4248"/>
<path opacity="0.4" d="M11.1549 194.353C11.1549 194.353 9.31281 199.504 12.8378 203.234H20.1721C20.1721 203.234 19.524 194.911 11.1549 194.353Z" fill="black"/>
<path d="M23.6517 183.744C23.3447 183.38 17.0679 193.205 20.5929 203.234H27.5065C27.5065 203.234 30.2128 191.567 23.6517 183.744Z" fill="#EE4248"/>
<path d="M35.8983 194.353C33.6382 194.505 31.5187 195.504 29.963 197.15C28.4073 198.797 27.53 200.969 27.5064 203.234H34.4087C34.4087 203.234 37.4334 198.981 35.8983 194.353Z" fill="#EE4248"/>
<path d="M12.2692 202.848C9.88483 204.559 8.03549 206.913 6.93638 209.634C5.83727 212.356 5.53358 215.334 6.06065 218.221C7.83453 228.455 18.637 232.867 18.637 232.867H30.6107C30.6107 232.867 42.8004 227.489 42.5048 216.425C42.2091 205.361 34.9544 203.007 34.9544 203.007L12.2692 202.848Z" fill="#455A64"/>
<path d="M42.4593 215.185C42.1882 214.728 41.8553 214.311 41.4701 213.946C40.9133 213.501 40.2737 213.172 39.5885 212.977C38.9034 212.781 38.1863 212.724 37.4788 212.809C35.3612 213.21 33.3602 214.08 31.6228 215.356C30.5191 216.061 29.3501 216.659 28.1318 217.141C26.7877 217.652 25.3319 217.797 23.9132 217.562C20.9908 217.061 18.6598 215.492 16.4765 214.446C14.6189 213.362 12.4836 212.848 10.3362 212.968C8.90055 213.117 7.57136 213.793 6.6065 214.867C6.28408 215.29 6.0095 215.748 5.78778 216.231C5.79538 216.088 5.82215 215.947 5.86738 215.81C5.98522 215.402 6.1738 215.017 6.42456 214.673C7.37804 213.477 8.76157 212.702 10.2793 212.513C12.537 212.315 14.8008 212.819 16.7608 213.957C19.035 215.003 21.3092 216.515 24.0497 216.97C25.3711 217.197 26.7293 217.068 27.984 216.595C29.173 216.132 30.3152 215.557 31.3953 214.878C33.2087 213.591 35.2943 212.739 37.4902 212.388C38.2477 212.314 39.0122 212.399 39.7348 212.638C40.4574 212.877 41.1221 213.264 41.6861 213.775C41.9795 214.063 42.2184 214.402 42.3911 214.776C42.448 215.037 42.4821 215.174 42.4593 215.185Z" fill="#263238"/>
<path d="M42.63 217.857C42.3572 217.408 42.0286 216.996 41.6521 216.629C41.1037 216.182 40.4703 215.85 39.7901 215.655C39.1099 215.46 38.3971 215.404 37.6949 215.492C35.6006 215.895 33.623 216.761 31.9071 218.028C30.8321 218.738 29.6894 219.34 28.4958 219.825C27.1639 220.337 25.7186 220.483 24.3112 220.245C21.4116 219.745 19.1033 218.176 16.9428 217.13C15.1137 216.047 13.0042 215.533 10.8821 215.651C9.45569 215.807 8.13833 216.488 7.18648 217.562C6.86894 217.98 6.60177 218.434 6.3905 218.915C6.3905 218.915 6.3905 218.767 6.45873 218.494C6.58175 218.107 6.76602 217.742 7.00454 217.414C7.94272 216.221 9.30954 215.442 10.8138 215.242C13.0335 215.04 15.2613 215.529 17.193 216.641C19.399 217.687 21.7414 219.199 24.4022 219.654C25.7087 219.881 27.0522 219.751 28.2911 219.279C29.4625 218.817 30.586 218.242 31.6455 217.562C33.4376 216.274 35.5049 215.422 37.6836 215.071C38.4249 215.005 39.1719 215.094 39.8768 215.333C40.5818 215.572 41.229 215.955 41.7771 216.459C42.0654 216.745 42.3003 217.08 42.4708 217.448C42.5461 217.575 42.5999 217.713 42.63 217.857Z" fill="#263238"/>
<path d="M11.5529 217.789C11.5529 217.721 11.8713 217.516 12.292 217.857C12.4192 217.967 12.51 218.113 12.5527 218.275C12.5953 218.437 12.5877 218.609 12.5308 218.767C12.4608 218.962 12.3296 219.128 12.1569 219.242C11.9841 219.355 11.7791 219.41 11.5728 219.397C11.3664 219.384 11.1697 219.305 11.0124 219.171C10.855 219.037 10.7454 218.855 10.7001 218.653C10.6601 218.497 10.6633 218.333 10.7094 218.179C10.7555 218.025 10.8427 217.886 10.9616 217.778C11.371 217.437 11.7235 217.596 11.7007 217.664C11.678 217.732 11.4506 217.789 11.28 218.062C11.2432 218.13 11.2239 218.206 11.2239 218.284C11.2239 218.361 11.2432 218.437 11.28 218.505C11.3133 218.585 11.3662 218.655 11.4338 218.709C11.5014 218.762 11.5815 218.798 11.6666 218.812C11.7506 218.809 11.8324 218.785 11.9041 218.741C11.9758 218.697 12.035 218.636 12.076 218.562C12.114 218.499 12.1342 218.426 12.1342 218.352C12.1342 218.278 12.114 218.205 12.076 218.142C11.8258 217.88 11.5643 217.869 11.5529 217.789Z" fill="#263238"/>
<path d="M25.1186 213.468C25.1186 213.4 25.437 213.184 25.8691 213.536C25.9917 213.649 26.0786 213.795 26.119 213.957C26.1594 214.119 26.1516 214.289 26.0965 214.446C26.0247 214.639 25.8937 214.805 25.7222 214.919C25.5506 215.034 25.3473 215.091 25.1413 215.083C24.9358 215.063 24.7413 214.981 24.5846 214.846C24.4278 214.712 24.3165 214.532 24.2658 214.332C24.2245 214.175 24.2282 214.01 24.2765 213.855C24.3247 213.7 24.4156 213.562 24.5387 213.457C24.948 213.116 25.3005 213.275 25.2664 213.343C25.2323 213.411 25.0162 213.468 24.8457 213.741C24.8116 213.81 24.7939 213.886 24.7939 213.963C24.7939 214.04 24.8116 214.116 24.8457 214.184C24.879 214.264 24.9319 214.334 24.9995 214.388C25.0671 214.441 25.1472 214.477 25.2323 214.491C25.3165 214.49 25.3988 214.465 25.4707 214.422C25.5426 214.378 25.6016 214.315 25.6417 214.241C25.681 214.178 25.7018 214.105 25.7018 214.031C25.7018 213.957 25.681 213.884 25.6417 213.821C25.3915 213.559 25.13 213.548 25.1186 213.468Z" fill="#263238"/>
<path d="M38.2748 217.982C38.2748 217.914 38.5932 217.71 39.0253 218.051C39.148 218.163 39.2348 218.31 39.2753 218.471C39.3157 218.633 39.3078 218.803 39.2527 218.96C39.181 219.154 39.05 219.319 38.8784 219.434C38.7069 219.548 38.5036 219.605 38.2976 219.597C38.0935 219.578 37.9001 219.497 37.7435 219.365C37.5869 219.233 37.4747 219.056 37.422 218.858C37.3812 218.699 37.385 218.533 37.4332 218.376C37.4814 218.219 37.572 218.079 37.6949 217.971C38.1043 217.63 38.4568 217.789 38.4227 217.857C38.3885 217.926 38.1725 217.994 38.0019 218.255C37.9541 218.323 37.9245 218.401 37.9161 218.483C37.9077 218.566 37.9208 218.648 37.954 218.724C37.9872 218.8 38.0395 218.865 38.1057 218.915C38.1719 218.964 38.2497 218.996 38.3317 219.006C38.4159 219.004 38.4982 218.98 38.57 218.936C38.6419 218.892 38.7009 218.83 38.741 218.756C38.7803 218.693 38.8012 218.62 38.8012 218.545C38.8012 218.471 38.7803 218.398 38.741 218.335C38.5477 218.085 38.2976 218.062 38.2748 217.982Z" fill="#263238"/>
<path d="M384.409 192.409L388.309 232.867H408.026L412.745 192.409H384.409Z" fill="#455A64"/>
<path d="M384.409 187.178C383.195 188.694 382.541 190.581 382.555 192.523H414.599C414.755 191.548 414.667 190.55 414.344 189.618C414.02 188.685 413.471 187.847 412.745 187.178H384.409Z" fill="#263238"/>
<path d="M388.059 183.471L386.979 187.474L411.165 187.656L409.562 183.426L388.059 183.471Z" fill="#263238"/>
<path d="M384.045 202.541C384.045 202.916 386.319 222.94 386.319 222.94H410.414L412.689 202.575L384.045 202.541Z" fill="#EE4248"/>
</svg>
